<?xml version="1.0" encoding="UTF-8"?><svg id="Layer_1" xmlns="http://www.w3.org/2000/svg" viewBox="0 0 72 72"><defs><style>.cls-1{fill-rule:evenodd;}</style></defs><path class="cls-1" d="m61.46,10.54C54.94,4.03,45.94,0,36,0S17.06,4.03,10.54,10.54C4.03,17.06,0,26.06,0,36s4.03,18.94,10.54,25.46c6.52,6.51,15.52,10.54,25.46,10.54,19.88,0,36-16.12,36-36,0-9.94-4.03-18.94-10.54-25.46ZM24.96,57h-9.09v-29.33h9.09v29.33Zm-4.59-33.17c-2.97,0-5.37-2.42-5.37-5.41s2.4-5.41,5.37-5.41,5.37,2.42,5.37,5.41-2.4,5.41-5.37,5.41Zm38.63,33.17h-9.04v-15.4c0-4.22-1.6-6.58-4.95-6.58-3.64,0-5.53,2.46-5.53,6.58v15.4h-8.71v-29.33h8.71v3.95s2.62-4.85,8.84-4.85,10.68,3.8,10.68,11.66v18.57Z"/></svg>